# xmcd CD database file
#
# Track frame offsets:
#	150
#	15355
#	32135
#	45497
#	62152
#	77088
#	96191
#	114545
#	128925
#	145609
#	168667
#	190535
#	203446
#	221560
#	240317
#	253477
#	269719
#	283407
#	300465
#	328342
#
# Disc length: 4594 seconds
#
# Revision: 4
# Processed by: cddbd v1.5.2PL0 Copyright (c) Steve Scherf et al.
# Submitted via: CdAid (MTCDDB.DLL V2003.12.21)
#
DISCID=2511f014
DTITLE=Various Artist - 101 70's Hits [Disc 4]
DYEAR=2007
DGENRE=Rock and Roll
TTITLE0=Instant Karma - John Lennon and The Plastic Ono Band
TTITLE1=Another Day - Paul McCartney
TTITLE2=Cotton Fields - The Beach Boys
TTITLE3=When I Am Dead And Gone - McGuinness Flint
TTITLE4=Life Is A Long Song - Jethro Tull
TTITLE5=Lady Eleanor - Lindisfarne
TTITLE6=The Air That I Breathe - The Hollies
TTITLE7=Pinball - Brian Protheroe
TTITLE8=They Shoot Horses Don't They - Racing Cars
TTITLE9=Its Time For Love - The Chi-Lites
TTITLE10=Why Can't We Live Together - Timmy Thomas
TTITLE11=Tired Of Being Alone - Al Green
TTITLE12=Vincent - Don McLean
TTITLE13=Dear Elaine - Roy Wood
TTITLE14=Smoke Gets In Your Eyes - Bryan Ferry
TTITLE15=Gaye - Clifford T. Ward
TTITLE16=Clair - Gilbert O'Sullivan
TTITLE17=Dancing In The City - Marshal Hain
TTITLE18=Rio - Michael Nesmith
TTITLE19=Moonlight Feels Right - Starbuck
EXTD=ID3G:  17 YEAR: 2007
EXTT0=
EXTT1=
EXTT2=
EXTT3=
EXTT4=
EXTT5=
EXTT6=
EXTT7=
EXTT8=
EXTT9=
EXTT10=
EXTT11=
EXTT12=
EXTT13=
EXTT14=
EXTT15=
EXTT16=
EXTT17=
EXTT18=
EXTT19=
PLAYORDER=
